<svg id="Layer_1" data-name="Layer 1" xmlns="http://www.w3.org/2000/svg" viewBox="0 0 508.96 148.87"><defs><style>.cls-1{fill:#eaeaea;}</style></defs><path class="cls-1" d="M24,61.52c.2,11.9,7.8,16.8,16.61,16.8A31.82,31.82,0,0,0,54,75.82l1.5,6.3c-3.1,1.4-8.4,3-16.1,3-14.91,0-23.81-9.8-23.81-24.4s8.6-26.1,22.71-26.1c15.8,0,20,13.9,20,22.8a33.19,33.19,0,0,1-.3,4.1Zm25.81-6.3c.1-5.6-2.3-14.3-12.2-14.3-8.91,0-12.81,8.2-13.51,14.3Z"/><path class="cls-1" d="M72.62,35.72l9.5,27.2A124.47,124.47,0,0,1,86,75.32h.3c1.1-4,2.5-8,4.1-12.4l9.4-27.2H109L90,84.12h-8.4l-18.4-48.4Z"/><path class="cls-1" d="M121.22,61.52c.2,11.9,7.8,16.8,16.6,16.8a31.82,31.82,0,0,0,13.4-2.5l1.5,6.3c-3.1,1.4-8.4,3-16.1,3-14.9,0-23.8-9.8-23.8-24.4s8.6-26.1,22.7-26.1c15.8,0,20,13.9,20,22.8a33.19,33.19,0,0,1-.3,4.1Zm25.8-6.3c.1-5.6-2.3-14.3-12.2-14.3-8.9,0-12.8,8.2-13.5,14.3Z"/><path class="cls-1" d="M166.42,48.82c0-5-.1-9.1-.4-13.1h7.8l.5,8h.2a17.8,17.8,0,0,1,16-9.1c6.7,0,17.1,4,17.1,20.6v28.9h-8.8V56.22c0-7.8-2.9-14.3-11.2-14.3a12.5,12.5,0,0,0-11.8,9,12.65,12.65,0,0,0-.6,4.1v29.1h-8.8Z"/><path class="cls-1" d="M232.12,21.82v13.9h12.6v6.7h-12.6v26.1c0,6,1.7,9.4,6.6,9.4a19.58,19.58,0,0,0,5.1-.6l.4,6.6a21.54,21.54,0,0,1-7.8,1.2c-4.1,0-7.4-1.3-9.5-3.7-2.5-2.6-3.4-6.9-3.4-12.6V42.42H216v-6.7h7.5V24.12Z"/><path class="cls-1" d="M253.42,75.12a23.06,23.06,0,0,0,11.6,3.5c6.4,0,9.4-3.2,9.4-7.2,0-4.2-2.5-6.5-9-8.9-8.7-3.1-12.8-7.9-12.8-13.7,0-7.8,6.3-14.2,16.7-14.2a24.16,24.16,0,0,1,11.9,3L279,44a18.84,18.84,0,0,0-9.9-2.8c-5.2,0-8.1,3-8.1,6.6,0,4,2.9,5.8,9.2,8.2,8.4,3.2,12.7,7.4,12.7,14.6,0,8.5-6.6,14.5-18.1,14.5a27.6,27.6,0,0,1-13.6-3.3Z"/><path class="cls-1" d="M328.72,82.32a32.41,32.41,0,0,1-13.9,2.8c-14.6,0-24.1-9.9-24.1-24.7s10.2-25.7,26-25.7a29.42,29.42,0,0,1,12.2,2.5l-2,6.8a20.41,20.41,0,0,0-10.2-2.3c-11.1,0-17.1,8.2-17.1,18.3,0,11.2,7.2,18.1,16.8,18.1a25,25,0,0,0,10.8-2.4Z"/><path class="cls-1" d="M365.82,84.12l-.7-6.1h-.3a18,18,0,0,1-14.8,7.2c-9.8,0-14.8-6.9-14.8-13.9,0-11.7,10.4-18.1,29.1-18v-1c0-4-1.1-11.2-11-11.2a24.11,24.11,0,0,0-12.6,3.6l-2-5.8a30,30,0,0,1,15.9-4.3c14.8,0,18.4,10.1,18.4,19.8v18.1a68.15,68.15,0,0,0,.8,11.6Zm-1.3-24.7c-9.6-.2-20.5,1.5-20.5,10.9,0,5.7,3.8,8.4,8.3,8.4a12,12,0,0,0,11.7-8.1,9.18,9.18,0,0,0,.5-2.8Z"/><path class="cls-1" d="M387.22,51.52c0-6.2-.2-11.2-.4-15.8h7.9l.4,8.3h.2c3.6-5.9,9.3-9.4,17.2-9.4,11.7,0,20.5,9.9,20.5,24.6,0,17.4-10.6,26-22,26-6.4,0-12-2.8-14.9-7.6h-.2v26.3h-8.7Zm8.7,12.9a19.82,19.82,0,0,0,.4,3.6,13.58,13.58,0,0,0,13.2,10.3c9.3,0,14.7-7.6,14.7-18.7,0-9.7-5.1-18-14.4-18a14,14,0,0,0-13.3,10.9,14.27,14.27,0,0,0-.6,3.6Z"/><path class="cls-1" d="M449,61.52c.2,11.9,7.8,16.8,16.6,16.8a31.82,31.82,0,0,0,13.4-2.5l1.5,6.3c-3.1,1.4-8.4,3-16.1,3-14.9,0-23.8-9.8-23.8-24.4s8.6-26.1,22.7-26.1c15.8,0,20,13.9,20,22.8a33.19,33.19,0,0,1-.3,4.1Zm25.8-6.3c.1-5.6-2.3-14.3-12.2-14.3-8.9,0-12.8,8.2-13.5,14.3Z"/><path class="cls-1" d="M412.55,126.5c.07-1.22.14-3,.14-4.62V100.23h3.22v11.25H416a6.65,6.65,0,0,1,6.1-3.29c4.44,0,7.59,3.7,7.55,9.14,0,6.4-4,9.58-8,9.58a6.37,6.37,0,0,1-6-3.37h-.11l-.15,3Zm3.36-7.17a6.45,6.45,0,0,0,.15,1.18,5,5,0,0,0,4.89,3.81c3.4,0,5.44-2.77,5.44-6.88,0-3.59-1.86-6.66-5.33-6.66a5.18,5.18,0,0,0-5,4,6.07,6.07,0,0,0-.19,1.34Z"/><path class="cls-1" d="M435.56,118.14c.07,4.4,2.89,6.22,6.14,6.22a11.74,11.74,0,0,0,5-.93l.56,2.33a14.5,14.5,0,0,1-6,1.11c-5.52,0-8.81-3.62-8.81-9s3.18-9.66,8.4-9.66c5.85,0,7.4,5.14,7.4,8.43a11.7,11.7,0,0,1-.11,1.52Zm9.55-2.33c0-2.07-.85-5.29-4.52-5.29-3.29,0-4.73,3-5,5.29Z"/><path class="cls-1" d="M456.2,103.45v5.14h4.67v2.48H456.2v9.66c0,2.22.63,3.48,2.45,3.48a7.21,7.21,0,0,0,1.88-.22l.15,2.44a8,8,0,0,1-2.88.44,4.52,4.52,0,0,1-3.52-1.37c-.92-1-1.26-2.55-1.26-4.66v-9.77h-2.77v-2.48H453V104.3Z"/><path class="cls-1" d="M474.45,126.5l-.26-2.25h-.11a6.7,6.7,0,0,1-5.48,2.66,5.1,5.1,0,0,1-5.48-5.14c0-4.33,3.85-6.7,10.77-6.66v-.37c0-1.48-.41-4.15-4.07-4.15a9,9,0,0,0-4.66,1.33l-.74-2.14a11.14,11.14,0,0,1,5.88-1.59c5.48,0,6.81,3.73,6.81,7.32v6.7a25.32,25.32,0,0,0,.3,4.29Zm-.48-9.14c-3.56-.07-7.59.56-7.59,4a2.88,2.88,0,0,0,3.07,3.11,4.46,4.46,0,0,0,4.33-3,3.41,3.41,0,0,0,.19-1Z"/></svg>