<svg id="Layer_1" data-name="Layer 1" xmlns="http://www.w3.org/2000/svg" viewBox="0 0 538.79 112.35"><defs><style>.cls-1{fill:#fff;}</style></defs><path class="cls-1" d="M40,30.77c14.51,0,23.51,11.31,23.51,26.11v2.2H25.28c.7,8.2,6.7,15,16.4,15A20.54,20.54,0,0,0,56,68.38l4.2,5.9c-4.8,4.7-11.61,7.2-19.4,7.2-14.41,0-25-10.2-25-25.4C15.78,42.08,25.88,30.77,40,30.77ZM25.18,52.58H54.69c-.2-6.4-4.5-14.41-14.71-14.41C30.28,38.17,25.68,46,25.18,52.58Z"/><path class="cls-1" d="M67.68,32h9.6l15.1,37.91L107.49,32h9.7L97.29,80.28H87.58Z"/><path class="cls-1" d="M145.68,30.77c14.5,0,23.51,11.31,23.51,26.11v2.2H131c.7,8.2,6.7,15,16.4,15a20.53,20.53,0,0,0,14.3-5.7l4.2,5.9c-4.8,4.7-11.6,7.2-19.4,7.2-14.4,0-25-10.2-25-25.4C121.48,42.08,131.58,30.77,145.68,30.77Zm-14.8,21.81h29.5c-.2-6.4-4.5-14.41-14.7-14.41C136,38.17,131.38,46,130.88,52.58Z"/><path class="cls-1" d="M213.08,49.38c0-8-4.1-10.61-10.3-10.61a17.23,17.23,0,0,0-13.3,7v34.5h-9V32h9v6.8a23,23,0,0,1,17.1-8c10.21,0,15.5,5.4,15.5,15.61v33.9h-9Z"/><path class="cls-1" d="M238.18,69.58V39.87h-8V32h8V18.77h9V32H257v7.9h-9.8V67.58c0,3.4,1.6,5.9,4.7,5.9a6.92,6.92,0,0,0,4.9-1.9l2.3,6.8c-1.9,1.8-4.7,3.1-9.4,3.1C242.08,81.48,238.18,77.18,238.18,69.58Z"/><path class="cls-1" d="M267.08,67.38a23.4,23.4,0,0,0,16.2,6.9c6.8,0,10.4-2.8,10.4-6.9,0-4.8-5.5-6.4-11.7-7.8-8.2-1.9-17.8-4.1-17.8-14.5,0-7.71,6.6-14.31,18.4-14.31,8.3,0,14.3,3,18.4,6.9L297,44c-2.8-3.4-8.2-5.9-14.3-5.9s-9.9,2.4-9.9,6.3c0,4.21,5.2,5.61,11.2,7,8.4,1.9,18.4,4.2,18.4,15.3,0,8.3-6.8,14.8-19.5,14.8-8.1,0-15.2-2.5-20.1-7.5Z"/><path class="cls-1" d="M335.38,30.77c9.1,0,14.6,3.8,18.1,8.5l-6,5.51a13.48,13.48,0,0,0-11.7-6c-9.5,0-15.6,7.31-15.6,17.31s6.1,17.4,15.6,17.4a13.73,13.73,0,0,0,11.7-6l6,5.5c-3.5,4.7-9,8.5-18.1,8.5-14.6,0-24.6-10.9-24.6-25.4S320.78,30.77,335.38,30.77Z"/><path class="cls-1" d="M393.18,75c-3.8,4.2-9.3,6.5-15.8,6.5-8,0-16.8-5.4-16.8-16,0-11,8.7-15.8,16.8-15.8,6.5,0,12.1,2.1,15.8,6.4v-8c0-6-4.9-9.61-11.8-9.61-5.5,0-10.2,2.1-14.5,6.4l-3.9-6.2a27.15,27.15,0,0,1,19.8-7.9c10.5,0,19.4,4.6,19.4,16.91v32.6h-9Zm0-13.5c-2.7-3.6-7.4-5.5-12.4-5.5-6.5,0-11.1,3.9-11.1,9.6s4.6,9.6,11.1,9.6c5,0,9.7-1.9,12.4-5.5Z"/><path class="cls-1" d="M416.58,98.68V32h9v6.9a19.68,19.68,0,0,1,15.8-8.1c12.6,0,21.5,9.5,21.5,25.31s-8.9,25.4-21.5,25.4a19.27,19.27,0,0,1-15.8-8.2v25.4ZM439,38.77c-5.5,0-11,3.2-13.4,7.11v20.5a16.81,16.81,0,0,0,13.4,7.1c9,0,14.5-7.3,14.5-17.4S448,38.77,439,38.77Z"/><path class="cls-1" d="M495.48,30.77c14.5,0,23.5,11.31,23.5,26.11v2.2h-38.2c.7,8.2,6.7,15,16.4,15a20.53,20.53,0,0,0,14.3-5.7l4.2,5.9c-4.8,4.7-11.6,7.2-19.4,7.2-14.4,0-25-10.2-25-25.4C471.28,42.08,481.38,30.77,495.48,30.77Zm-14.8,21.81h29.5c-.2-6.4-4.5-14.41-14.7-14.41C485.78,38.17,481.18,46,480.68,52.58Z"/></svg>