<svg id="Layer_1" data-name="Layer 1" xmlns="http://www.w3.org/2000/svg" viewBox="0 0 540.9 148.87"><defs><style>.cls-1{fill:#d2d2d1;}</style></defs><path class="cls-1" d="M41.34,32.46c14.5,0,23.5,11.3,23.5,26.1v2.2H26.64c.7,8.2,6.7,15,16.4,15a20.53,20.53,0,0,0,14.3-5.7l4.2,5.9c-4.8,4.7-11.6,7.2-19.4,7.2-14.41,0-25-10.2-25-25.4C17.13,43.76,27.23,32.46,41.34,32.46ZM26.53,54.26H56c-.2-6.4-4.5-14.4-14.7-14.4C31.64,39.86,27,47.66,26.53,54.26Z"/><path class="cls-1" d="M69,33.66h9.6l15.11,37.9,15.1-37.9h9.7L98.64,82h-9.7Z"/><path class="cls-1" d="M147,32.46c14.51,0,23.51,11.3,23.51,26.1v2.2H132.33c.7,8.2,6.7,15,16.4,15A20.54,20.54,0,0,0,163,70.06l4.2,5.9c-4.8,4.7-11.6,7.2-19.4,7.2-14.41,0-25-10.2-25-25.4C122.83,43.76,132.93,32.46,147,32.46Zm-14.8,21.8h29.51c-.2-6.4-4.5-14.4-14.71-14.4C137.33,39.86,132.73,47.66,132.23,54.26Z"/><path class="cls-1" d="M214.44,51.06c0-8-4.1-10.6-10.3-10.6a17.26,17.26,0,0,0-13.31,7V82h-9V33.66h9v6.8a23.05,23.05,0,0,1,17.11-8c10.2,0,15.5,5.4,15.5,15.6V82h-9Z"/><path class="cls-1" d="M239.53,71.26V41.56h-8v-7.9h8V20.46h9v13.2h9.8v7.9h-9.8v27.7c0,3.4,1.6,5.9,4.7,5.9a6.92,6.92,0,0,0,4.9-1.9l2.3,6.8c-1.9,1.8-4.7,3.1-9.4,3.1C243.43,83.16,239.53,78.86,239.53,71.26Z"/><path class="cls-1" d="M268.43,69.06a23.4,23.4,0,0,0,16.2,6.9c6.8,0,10.4-2.8,10.4-6.9,0-4.8-5.5-6.4-11.7-7.8-8.2-1.9-17.8-4.1-17.8-14.5,0-7.7,6.6-14.3,18.4-14.3,8.3,0,14.3,3,18.4,6.9l-4,6.3c-2.8-3.4-8.2-5.9-14.3-5.9s-9.9,2.4-9.9,6.3c0,4.2,5.2,5.6,11.2,7,8.4,1.9,18.4,4.2,18.4,15.3,0,8.3-6.8,14.8-19.5,14.8-8.1,0-15.2-2.5-20.1-7.5Z"/><path class="cls-1" d="M336.73,32.46c9.1,0,14.6,3.8,18.1,8.5l-6,5.5a13.49,13.49,0,0,0-11.7-6c-9.5,0-15.6,7.3-15.6,17.3s6.1,17.4,15.6,17.4a13.73,13.73,0,0,0,11.7-6l6,5.5c-3.5,4.7-9,8.5-18.1,8.5-14.6,0-24.6-10.9-24.6-25.4S322.13,32.46,336.73,32.46Z"/><path class="cls-1" d="M394.53,76.66c-3.8,4.2-9.3,6.5-15.8,6.5-8,0-16.8-5.4-16.8-16,0-11,8.7-15.8,16.8-15.8,6.5,0,12.1,2.1,15.8,6.4v-8c0-6-4.9-9.6-11.8-9.6-5.5,0-10.2,2.1-14.5,6.4l-3.9-6.2a27.15,27.15,0,0,1,19.8-7.9c10.5,0,19.4,4.6,19.4,16.9V82h-9Zm0-13.5c-2.7-3.6-7.4-5.5-12.4-5.5-6.5,0-11.1,3.9-11.1,9.6s4.6,9.6,11.1,9.6c5,0,9.7-1.9,12.4-5.5Z"/><path class="cls-1" d="M417.93,100.36V33.66h9v6.9a19.68,19.68,0,0,1,15.8-8.1c12.6,0,21.5,9.5,21.5,25.3s-8.9,25.4-21.5,25.4a19.27,19.27,0,0,1-15.8-8.2v25.4Zm22.4-59.9c-5.5,0-11,3.2-13.4,7.1v20.5a16.81,16.81,0,0,0,13.4,7.1c9,0,14.5-7.3,14.5-17.4S449.33,40.46,440.33,40.46Z"/><path class="cls-1" d="M496.83,32.46c14.5,0,23.5,11.3,23.5,26.1v2.2h-38.2c.7,8.2,6.7,15,16.4,15a20.53,20.53,0,0,0,14.3-5.7L517,76c-4.8,4.7-11.6,7.2-19.4,7.2-14.4,0-25-10.2-25-25.4C472.63,43.76,482.73,32.46,496.83,32.46ZM482,54.26h29.5c-.2-6.4-4.5-14.4-14.7-14.4C487.13,39.86,482.53,47.66,482,54.26Z"/><path class="cls-1" d="M442.46,99.37h3.59v10.15a7.75,7.75,0,0,1,6.31-3.28c5,0,8.59,4,8.59,10.15s-3.59,10.11-8.59,10.11a7.93,7.93,0,0,1-6.31-3.24V126h-3.59Zm9,23.93c3.59,0,5.83-2.87,5.83-6.91s-2.24-7-5.83-7a6.65,6.65,0,0,0-5.36,2.88v8.19A6.6,6.6,0,0,0,451.41,123.3Z"/><path class="cls-1" d="M474,106.24c5.79,0,9.39,4.52,9.39,10.43v.88H468.15a6.32,6.32,0,0,0,6.55,6,8.19,8.19,0,0,0,5.71-2.28l1.68,2.36a10.86,10.86,0,0,1-7.75,2.88c-5.75,0-10-4.08-10-10.15C464.35,110.76,468.39,106.24,474,106.24ZM468.11,115h11.78A5.71,5.71,0,0,0,474,109.2,5.91,5.91,0,0,0,468.11,115Z"/><path class="cls-1" d="M488.64,121.74V109.88h-3.19v-3.16h3.19v-5.27h3.6v5.27h3.91v3.16h-3.91V121c0,1.35.64,2.35,1.88,2.35a2.74,2.74,0,0,0,1.95-.76l.92,2.72a5.12,5.12,0,0,1-3.75,1.24C490.2,126.5,488.64,124.78,488.64,121.74Z"/><path class="cls-1" d="M512.06,123.9a8.28,8.28,0,0,1-6.32,2.6c-3.19,0-6.71-2.16-6.71-6.39,0-4.4,3.48-6.32,6.71-6.32a8.06,8.06,0,0,1,6.32,2.56v-3.19c0-2.4-2-3.84-4.72-3.84a7.9,7.9,0,0,0-5.79,2.56L500,109.4a10.84,10.84,0,0,1,7.91-3.16c4.2,0,7.75,1.84,7.75,6.76v13h-3.59Zm0-5.39a6.12,6.12,0,0,0-5-2.2c-2.59,0-4.43,1.56-4.43,3.84s1.84,3.83,4.43,3.83a6.12,6.12,0,0,0,5-2.2Z"/></svg>