<svg id="Layer_1" data-name="Layer 1" xmlns="http://www.w3.org/2000/svg" viewBox="0 0 573.85 156.5"><defs><style>.cls-1{fill:#231f20;}</style></defs><path class="cls-1" d="M60.39,43.1c14.5,0,23.5,11.3,23.5,26.11v2.2H45.68c.71,8.2,6.71,15,16.41,15a20.53,20.53,0,0,0,14.3-5.7l4.2,5.9c-4.8,4.7-11.6,7.2-19.4,7.2-14.41,0-25-10.2-25-25.4C36.18,54.4,46.28,43.1,60.39,43.1ZM45.58,64.91H75.09c-.2-6.4-4.5-14.41-14.7-14.41C50.68,50.5,46.08,58.3,45.58,64.91Z"/><path class="cls-1" d="M88.08,44.3h9.6l15.11,37.91,15.1-37.91h9.7l-19.9,48.31H108Z"/><path class="cls-1" d="M166.08,43.1c14.51,0,23.51,11.3,23.51,26.11v2.2H151.38c.7,8.2,6.7,15,16.4,15a20.54,20.54,0,0,0,14.31-5.7l4.2,5.9c-4.8,4.7-11.61,7.2-19.4,7.2-14.41,0-25-10.2-25-25.4C141.88,54.4,152,43.1,166.08,43.1Zm-14.8,21.81h29.51c-.2-6.4-4.5-14.41-14.71-14.41C156.38,50.5,151.78,58.3,151.28,64.91Z"/><path class="cls-1" d="M233.49,61.71c0-8-4.1-10.61-10.31-10.61a17.23,17.23,0,0,0-13.3,7v34.5h-9V44.3h9v6.8a23,23,0,0,1,17.1-8c10.21,0,15.51,5.4,15.51,15.61v33.9h-9Z"/><path class="cls-1" d="M258.58,81.91V52.2h-8V44.3h8V31.1h9V44.3h9.8v7.9h-9.8V79.91c0,3.4,1.6,5.9,4.7,5.9a6.92,6.92,0,0,0,4.9-1.9l2.3,6.8c-1.9,1.8-4.7,3.1-9.4,3.1C262.48,93.81,258.58,89.51,258.58,81.91Z"/><path class="cls-1" d="M287.48,79.71a23.4,23.4,0,0,0,16.2,6.9c6.8,0,10.4-2.8,10.4-6.9,0-4.8-5.5-6.4-11.7-7.8-8.2-1.9-17.8-4.1-17.8-14.51,0-7.7,6.6-14.3,18.4-14.3,8.3,0,14.3,3,18.4,6.9l-4,6.3c-2.8-3.4-8.2-5.9-14.3-5.9s-9.9,2.4-9.9,6.3c0,4.2,5.2,5.61,11.2,7,8.4,1.9,18.4,4.2,18.4,15.3,0,8.3-6.8,14.8-19.5,14.8-8.1,0-15.2-2.5-20.1-7.5Z"/><path class="cls-1" d="M355.78,43.1c9.1,0,14.6,3.8,18.1,8.5l-6,5.51a13.48,13.48,0,0,0-11.7-6c-9.5,0-15.6,7.3-15.6,17.31s6.1,17.4,15.6,17.4a13.73,13.73,0,0,0,11.7-6l6,5.5c-3.5,4.7-9,8.5-18.1,8.5-14.6,0-24.6-10.9-24.6-25.4S341.18,43.1,355.78,43.1Z"/><path class="cls-1" d="M413.58,87.31c-3.8,4.2-9.3,6.5-15.8,6.5-8,0-16.8-5.4-16.8-16,0-11,8.7-15.8,16.8-15.8,6.5,0,12.1,2.1,15.8,6.4v-8c0-6-4.9-9.6-11.8-9.6-5.5,0-10.2,2.1-14.5,6.4l-3.9-6.2a27.15,27.15,0,0,1,19.8-7.9c10.5,0,19.4,4.6,19.4,16.91v32.6h-9Zm0-13.5c-2.7-3.6-7.4-5.5-12.4-5.5-6.5,0-11.1,3.9-11.1,9.6s4.6,9.6,11.1,9.6c5,0,9.7-1.9,12.4-5.5Z"/><path class="cls-1" d="M437,111V44.3h9v6.9a19.68,19.68,0,0,1,15.8-8.1c12.6,0,21.5,9.5,21.5,25.31s-8.9,25.4-21.5,25.4a19.27,19.27,0,0,1-15.8-8.2V111Zm22.4-59.91c-5.5,0-11,3.2-13.4,7.11v20.5a16.81,16.81,0,0,0,13.4,7.1c9,0,14.5-7.3,14.5-17.4S468.38,51.1,459.38,51.1Z"/><path class="cls-1" d="M515.88,43.1c14.5,0,23.5,11.3,23.5,26.11v2.2h-38.2c.7,8.2,6.7,15,16.4,15a20.53,20.53,0,0,0,14.3-5.7l4.2,5.9c-4.8,4.7-11.6,7.2-19.4,7.2-14.4,0-25-10.2-25-25.4C491.68,54.4,501.78,43.1,515.88,43.1Zm-14.8,21.81h29.5c-.2-6.4-4.5-14.41-14.7-14.41C506.18,50.5,501.58,58.3,501.08,64.91Z"/><path class="cls-1" d="M461.51,110h3.59v10.15a7.75,7.75,0,0,1,6.31-3.28c5,0,8.59,4,8.59,10.15s-3.59,10.11-8.59,10.11a7.93,7.93,0,0,1-6.31-3.24v2.76h-3.59ZM470.46,134c3.59,0,5.83-2.88,5.83-6.91s-2.24-7-5.83-7A6.67,6.67,0,0,0,465.1,123v8.19A6.58,6.58,0,0,0,470.46,134Z"/><path class="cls-1" d="M493.07,116.89c5.79,0,9.39,4.52,9.39,10.43v.88H487.2a6.33,6.33,0,0,0,6.55,6,8.19,8.19,0,0,0,5.71-2.28l1.68,2.36a10.86,10.86,0,0,1-7.75,2.88c-5.75,0-10-4.08-10-10.15C483.4,121.41,487.44,116.89,493.07,116.89Zm-5.91,8.71h11.78a5.71,5.71,0,0,0-5.87-5.75A5.9,5.9,0,0,0,487.16,125.6Z"/><path class="cls-1" d="M507.69,132.39V120.53H504.5v-3.16h3.19V112.1h3.6v5.27h3.91v3.16h-3.91v11.06c0,1.36.64,2.36,1.88,2.36a2.74,2.74,0,0,0,2-.76l.92,2.72a5.12,5.12,0,0,1-3.75,1.24C509.25,137.15,507.69,135.43,507.69,132.39Z"/><path class="cls-1" d="M531.1,134.55a8.24,8.24,0,0,1-6.31,2.6c-3.19,0-6.71-2.16-6.71-6.4s3.48-6.31,6.71-6.31A8,8,0,0,1,531.1,127v-3.2c0-2.39-2-3.83-4.71-3.83a7.88,7.88,0,0,0-5.79,2.56L519,120.05a10.84,10.84,0,0,1,7.91-3.16c4.19,0,7.75,1.84,7.75,6.75v13h-3.6Zm0-5.39a6.09,6.09,0,0,0-5-2.2c-2.6,0-4.43,1.56-4.43,3.83s1.83,3.84,4.43,3.84a6.09,6.09,0,0,0,5-2.2Z"/></svg>