<?xml version="1.0" encoding="utf-8"?>
<!-- Generator: Adobe Illustrator 25.2.0, SVG Export Plug-In . SVG Version: 6.00 Build 0)  -->
<svg version="1.1" id="Layer_1" xmlns="http://www.w3.org/2000/svg" xmlns:xlink="http://www.w3.org/1999/xlink" x="0px" y="0px"
	 viewBox="0 0 512 512" style="enable-background:new 0 0 512 512;" xml:space="preserve">
<path d="M384.5,208.9H190.7v-34.3h129.6c8.3,0,15-6.7,15-15V95.3c0-8.3-6.7-15-15-15H175.7c-8.3,0-15,6.7-15,15v321.3
	c0,8.3,6.7,15,15,15h160.7c8.3,0,15-6.7,15-15v-64.3c0-8.3-6.7-15-15-15H190.7v-34.3h193.9c8.3,0,15-6.7,15-15v-64.3
	C399.5,215.6,392.8,208.9,384.5,208.9z M190.7,110.3h114.6v34.3H190.7V110.3z M321.3,367.4v34.3H190.7v-34.3H321.3z M369.5,273.1
	H190.7v-34.3h178.9V273.1z"/>
</svg>
