<svg id="Capa_1" enable-background="new 0 0 512 512" height="512" viewBox="0 0 512 512" width="512" xmlns="http://www.w3.org/2000/svg"><g id="XMLID_2418_"><g id="XMLID_42_"><path id="XMLID_75_" d="m406 279.951c-15.71 0-30.631 3.44-44.055 9.599l-44.54-77.147c26.973-19.235 44.595-50.776 44.595-86.356 0-39.958-22.101-76.117-57.679-94.368-4.914-2.522-10.941-.581-13.462 4.333s-.581 10.941 4.333 13.462c28.872 14.811 46.808 44.152 46.808 76.573 0 19.593-6.6 37.667-17.675 52.144-6.16-14.386-18.719-25.402-34.078-29.452 4.401-6.556 6.973-14.438 6.973-22.911v-5.378c0-22.729-18.491-41.219-41.22-41.219s-41.22 18.491-41.22 41.219v5.378c0 8.473 2.572 16.354 6.973 22.911-15.359 4.05-27.918 15.066-34.078 29.452-11.075-14.477-17.675-32.551-17.675-52.144 0-32.42 17.935-61.761 46.806-76.572 4.914-2.521 6.854-8.548 4.333-13.462s-8.548-6.855-13.462-4.333c-35.576 18.251-57.677 54.41-57.677 94.367 0 35.58 17.622 67.121 44.595 86.357l-44.54 77.147c-13.424-6.159-28.344-9.599-44.055-9.599-58.449 0-106 47.551-106 106s47.551 106 106 106c55.109 0 100.523-42.275 105.534-96.097h88.933c5.011 53.822 50.424 96.097 105.534 96.097 58.449 0 106-47.551 106-106s-47.552-106.001-106.001-106.001zm-171.22-159.502c0-11.7 9.519-21.219 21.22-21.219s21.22 9.519 21.22 21.219v5.378c0 11.7-9.519 21.219-21.22 21.219s-21.22-9.519-21.22-21.219zm.031 46.598h42.379c15.891 0 29.04 11.926 30.991 27.297-14.483 11.092-32.57 17.703-52.18 17.703s-37.697-6.611-52.18-17.703c1.949-15.371 15.098-27.297 30.99-27.297zm-22.909 55.381c13.435 6.172 28.371 9.619 44.098 9.619s30.663-3.448 44.098-9.619l44.536 77.139c-24.413 17.393-41.167 44.864-44.15 76.288h-88.967c-2.983-31.424-19.737-58.896-44.15-76.288zm-158.082 231.82c1.95-15.37 15.099-27.297 30.991-27.297h42.379c15.891 0 29.041 11.926 30.991 27.297-14.483 11.092-32.57 17.703-52.18 17.703s-37.698-6.611-52.181-17.703zm73.4-68.517c0 11.701-9.519 21.22-21.22 21.22s-21.22-9.519-21.22-21.22v-5.378c0-11.7 9.519-21.219 21.22-21.219s21.22 9.519 21.22 21.219zm47.105 52.364c-6.16-14.387-18.719-25.402-34.079-29.452 4.401-6.557 6.973-14.439 6.973-22.911v-5.378c0-22.729-18.491-41.219-41.22-41.219s-41.22 18.491-41.22 41.219v5.378c0 8.473 2.572 16.355 6.973 22.911-15.36 4.05-27.919 15.066-34.079 29.452-11.073-14.477-17.673-32.55-17.673-52.144 0-47.42 38.58-86 86-86s86 38.58 86 86c0 19.594-6.6 37.667-17.675 52.144zm179.495 16.153c1.95-15.37 15.099-27.297 30.991-27.297h42.379c15.891 0 29.041 11.926 30.991 27.297-14.483 11.092-32.57 17.703-52.18 17.703s-37.698-6.611-52.181-17.703zm73.4-68.517c0 11.701-9.519 21.22-21.22 21.22s-21.22-9.519-21.22-21.22v-5.378c0-11.7 9.519-21.219 21.22-21.219s21.22 9.519 21.22 21.219zm47.105 52.364c-6.16-14.387-18.719-25.402-34.079-29.452 4.401-6.557 6.973-14.439 6.973-22.911v-5.378c0-22.729-18.491-41.219-41.22-41.219s-41.22 18.491-41.22 41.219v5.378c0 8.473 2.572 16.355 6.973 22.911-15.36 4.05-27.919 15.066-34.079 29.452-11.073-14.477-17.673-32.55-17.673-52.144 0-47.42 38.58-86 86-86s86 38.58 86 86c0 19.594-6.6 37.667-17.675 52.144z"/><path id="XMLID_1069_" d="m256 40.049c2.63 0 5.21-1.07 7.07-2.93s2.93-4.44 2.93-7.07c0-2.64-1.07-5.21-2.93-7.07s-4.44-2.93-7.07-2.93-5.21 1.07-7.07 2.93-2.93 4.44-2.93 7.07 1.07 5.21 2.93 7.07 4.44 2.93 7.07 2.93z"/></g></g></svg>