<?xml version="1.0" encoding="utf-8"?>
<!-- Generator: Adobe Illustrator 25.3.0, SVG Export Plug-In . SVG Version: 6.00 Build 0)  -->
<svg version="1.1" id="Layer_1" xmlns="http://www.w3.org/2000/svg" xmlns:xlink="http://www.w3.org/1999/xlink" x="0px" y="0px"
	 viewBox="0 0 512 337" style="enable-background:new 0 0 512 337;" xml:space="preserve">
<path d="M256,298c-82.3,0-157.3-48.5-191.1-123.6c-1.3-2.8-1.3-6,0-8.7C98.7,90.5,173.7,42,256,42s157.3,48.5,191.1,123.6
	c1.3,2.8,1.3,6,0,8.7C413.3,249.5,338.3,298,256,298L256,298z M86.4,170c31.2,65,97.2,106.7,169.6,106.7S394.3,235,425.6,170
	C394.4,105,328.4,63.3,256,63.3S117.7,105,86.4,170z"/>
<path d="M256,234c-35.3,0-64-28.7-64-64s28.7-64,64-64s64,28.7,64,64S291.3,234,256,234z M256,127.3c-23.5,0-42.7,19.1-42.7,42.7
	s19.1,42.7,42.7,42.7s42.7-19.1,42.7-42.7S279.5,127.3,256,127.3z"/>
</svg>
